<?xml version="1.0" encoding="utf-8"?><!-- Uploaded to: SVG Repo, www.svgrepo.com, Generator: SVG Repo Mixer Tools -->
<svg version="1.1" id="Uploaded to svgrepo.com" xmlns="http://www.w3.org/2000/svg" xmlns:xlink="http://www.w3.org/1999/xlink" 
	 width="800px" height="800px" viewBox="0 0 32 32" xml:space="preserve">
<style type="text/css">
	.linesandangles_een{fill:#111918;}
</style>
<path class="linesandangles_een" d="M20,4c0-1.654-1.346-3-3-3h-2c-1.654,0-3,1.346-3,3H6v19c0,2.761,2.239,5,5,5h10
	c2.761,0,5-2.239,5-5V4H20z M12,6h8v4.918C18.822,11.602,17.458,12,16,12s-2.822-0.398-4-1.082V6z M22,6h1.737
	C23.418,7.231,22.816,8.346,22,9.274V6z M15,3h2c0.551,0,1,0.449,1,1h-4C14,3.449,14.449,3,15,3z M10,6v3.274
	C9.184,8.346,8.582,7.231,8.263,6H10z M21,26H11c-1.654,0-3-1.346-3-3V9.975c0.569,0.76,1.242,1.435,2,2.006V15h2v-1.841
	C13.226,13.697,14.578,14,16,14s2.774-0.303,4-0.841V15h2v-3.019c0.758-0.571,1.431-1.246,2-2.006V23C24,24.654,22.654,26,21,26z
	 M10,23c0,0.552,0.448,1,1,1h10c0.552,0,1-0.448,1-1v-6H10V23z M12,19h8v3h-8V19z"/>
</svg>