<?xml version="1.0" encoding="UTF-8"?>
<svg id="Layer_1" data-name="Layer 1" xmlns="http://www.w3.org/2000/svg" xmlns:xlink="http://www.w3.org/1999/xlink" viewBox="0 0 392.68 130.04">
  <defs>
    <style>
      .cls-1 {
        fill: url(#linear-gradient-13);
      }

      .cls-2 {
        fill: url(#linear-gradient-2);
      }

      .cls-3 {
        fill: url(#linear-gradient-10);
      }

      .cls-4 {
        fill: url(#linear-gradient-12);
      }

      .cls-5 {
        fill: none;
      }

      .cls-6 {
        fill: url(#linear-gradient-4);
      }

      .cls-7 {
        fill: url(#linear-gradient-3);
      }

      .cls-8 {
        fill: url(#linear-gradient-5);
      }

      .cls-9 {
        fill: url(#linear-gradient-8);
      }

      .cls-10 {
        fill: #e53b2d;
      }

      .cls-11 {
        fill: url(#linear-gradient-14);
      }

      .cls-12 {
        fill: url(#linear-gradient-7);
      }

      .cls-13 {
        fill: url(#linear-gradient-9);
      }

      .cls-14 {
        fill: url(#linear-gradient-11);
      }

      .cls-15 {
        fill: url(#linear-gradient-6);
      }

      .cls-16 {
        fill: #04518f;
      }

      .cls-17 {
        fill: #3993d0;
      }

      .cls-18 {
        fill: url(#linear-gradient);
      }

      .cls-19 {
        clip-path: url(#clippath);
      }
    </style>
    <linearGradient id="linear-gradient" x1="331.74" y1="104.21" x2="294.79" y2="40.21" gradientUnits="userSpaceOnUse">
      <stop offset="0" stop-color="#1f4396"/>
      <stop offset=".32" stop-color="#2268b1"/>
      <stop offset=".77" stop-color="#2697d3"/>
      <stop offset="1" stop-color="#28aae1"/>
    </linearGradient>
    <linearGradient id="linear-gradient-2" x1="300.07" y1="42.11" x2="347.68" y2="42.11" gradientUnits="userSpaceOnUse">
      <stop offset="0" stop-color="#2d368e"/>
      <stop offset="1" stop-color="#0a8ccc"/>
    </linearGradient>
    <linearGradient id="linear-gradient-3" x1="264.8" y1="33.2" x2="287.74" y2="72.94" gradientUnits="userSpaceOnUse">
      <stop offset="0" stop-color="#fbed1d"/>
      <stop offset=".16" stop-color="#fae31e"/>
      <stop offset=".41" stop-color="#f7ca21"/>
      <stop offset=".74" stop-color="#f3a125"/>
      <stop offset="1" stop-color="#f07c2a"/>
    </linearGradient>
    <linearGradient id="linear-gradient-4" x1="286.38" y1="24.51" x2="286.38" y2="69.23" gradientUnits="userSpaceOnUse">
      <stop offset="0" stop-color="#f9ad4d"/>
      <stop offset=".54" stop-color="#ed5d3b"/>
      <stop offset="1" stop-color="#e41f2d"/>
    </linearGradient>
    <linearGradient id="linear-gradient-5" x1="287.5" y1="76.75" x2="287.5" y2="128.79" xlink:href="#linear-gradient-3"/>
    <clipPath id="clippath">
      <path id="SVGID" class="cls-5" d="M0,80.79s98.93-36,280.28-12v47.82l-68.36,19.56-190.47-12.44-21.01-.62-.43-42.31Z"/>
    </clipPath>
    <linearGradient id="linear-gradient-6" x1="12.69" y1="28.06" x2="12.69" y2=".31" xlink:href="#linear-gradient"/>
    <linearGradient id="linear-gradient-7" x1="38.48" y1="28.58" x2="38.48" y2="11.53" xlink:href="#linear-gradient"/>
    <linearGradient id="linear-gradient-8" x1="60.35" y1="28.06" x2="60.35" y2="11.28" xlink:href="#linear-gradient"/>
    <linearGradient id="linear-gradient-9" x1="82.41" y1="39.03" x2="82.41" y2="11.28" xlink:href="#linear-gradient"/>
    <linearGradient id="linear-gradient-10" x1="103.01" y1="28.58" x2="103.01" y2="11.53" xlink:href="#linear-gradient"/>
    <linearGradient id="linear-gradient-11" x1="118.76" y1="28.06" x2="118.76" y2="0" xlink:href="#linear-gradient"/>
    <linearGradient id="linear-gradient-12" x1="134.84" y1="28.58" x2="134.84" y2="11.28" xlink:href="#linear-gradient"/>
    <linearGradient id="linear-gradient-13" x1="153.27" y1="28.06" x2="153.27" y2="11.53" xlink:href="#linear-gradient"/>
    <linearGradient id="linear-gradient-14" x1="170.27" y1="28.58" x2="170.27" y2="11.28" xlink:href="#linear-gradient"/>
  </defs>
  <g>
    <g>
      <path class="cls-18" d="M302.52,121.08s12.2-71.32,43.44-100.41c0,0-15.63,1.23-24.02,3.93-8.39,2.7-33.83,61.39-38.46,104.19l19.04-7.71Z"/>
      <path class="cls-2" d="M318.98,63.52c16.75-36.41,20.22-33.23,28.7-44.17,0,0-17.35,2.55-25.73,5.25-4.41,1.42-13.54,18.32-21.87,40.26"/>
      <path class="cls-7" d="M254.48,39.16l27.85,1.54s3.37,2.41,14.17,27.18c0,0-24.67-26.02-42.02-28.72Z"/>
      <path class="cls-6" d="M296.69,69.23s5.06-15.82,10.79-24.67c0,0-2.51-7.71-11.95-17.93l-30.26-2.12s21.2,15.04,31.42,44.72Z"/>
      <path class="cls-8" d="M282.43,126.33l-3.04,2.46s-.42-15.18,16.21-52.04c0,0-13.17,33.68-13.17,49.59Z"/>
    </g>
    <g>
      <path class="cls-17" d="M43.6,47.18l.9,20.26h-4.5c-2.36-6.68-5.06-11.34-8.08-13.99-3.02-2.65-6.67-3.97-10.95-3.97-3.64,0-6.64,1.14-9.01,3.43-2.36,2.29-3.55,4.93-3.55,7.94,0,3.72,1.24,6.27,3.71,7.65,2.48,1.39,6.73,2.73,12.77,4.01,9.26,2,15.48,5,18.66,8.99,3.17,3.99,4.76,9.07,4.76,15.21,0,7.24-2.09,13.48-6.28,18.73-4.18,5.25-10.05,7.87-17.59,7.87-5.37,0-10.21-1.69-14.52-5.07-2.1,1.65-4,3.26-5.68,4.84H.49v-22.01h4.39c3.3,12.38,9.72,18.57,19.25,18.57,5.03,0,8.89-1.48,11.59-4.45,2.7-2.96,4.05-6.28,4.05-9.96,0-2.06-.59-3.92-1.77-5.57-1.18-1.65-2.56-2.96-4.14-3.94-1.58-.98-5.93-2.2-13.05-3.68-7.13-1.48-12.35-4.22-15.67-8.23C1.81,79.83.15,74.82.15,68.83c0-6.45,2.03-11.9,6.1-16.36,4.07-4.46,9.13-6.69,15.2-6.69,4.61,0,9.2,1.61,13.77,4.84,1.46-.86,3.03-2.01,4.72-3.43h3.66Z"/>
      <path class="cls-17" d="M55.48,46.84h62.47l.45,24.65h-3.43c-2.78-13.99-8.54-20.99-17.28-20.99h-1.74v68.16h11.43v3.66h-41.26v-3.66h11.37V50.5h-1.69c-8.74,0-14.52,7-17.34,20.99h-3.43l.45-24.65Z"/>
      <path class="cls-17" d="M151.44,50.5v48.74c0,7.8,1.43,13.03,4.28,15.67,2.85,2.65,6.72,3.97,11.59,3.97,3.68,0,7-.69,9.96-2.08,2.96-1.39,5.29-3.48,6.98-6.28,1.69-2.79,2.53-7.55,2.53-14.27v-39.85c0-2.59-.17-4.22-.51-4.9-.34-.67-1.93-1.01-4.78-1.01h-5.18v-3.66h24.09v3.66h-3.55c-2.81,0-4.54.33-5.18.98-.64.66-.96,2.45-.96,5.37v39.06c0,4.95-.48,9.3-1.43,13.03-.96,3.73-3.49,7.06-7.6,9.99-4.11,2.93-10.44,4.39-19,4.39-4.5,0-8.88-.52-13.14-1.55-4.26-1.03-7.74-2.86-10.44-5.49-2.7-2.63-4.4-5.32-5.09-8.08-.69-2.76-1.04-5.98-1.04-9.65v-48.07h-9.91v-3.66h38.72v3.66h-10.36Z"/>
      <path class="cls-17" d="M213.13,118.66V50.5h-9.46v-3.66h38.27c11.07,0,19.83,3.51,26.28,10.52,6.45,7.02,9.68,15.87,9.68,26.57,0,5.55-.98,10.77-2.95,15.65-1.97,4.88-5,9.31-9.09,13.31-4.09,4-8.28,6.57-12.58,7.71-4.3,1.14-9.58,1.72-15.84,1.72h-33.77v-3.66h9.46ZM231.59,50.5v68.16h5.97c9.12,0,14.62-2.68,16.52-8.03,1.89-5.35,2.84-14.51,2.84-27.46,0-10.14-.58-17.42-1.75-21.86-1.16-4.43-2.93-7.34-5.29-8.73-2.36-1.39-5.37-2.08-9.01-2.08h-9.29Z"/>
    </g>
    <g class="cls-19">
      <g>
        <path class="cls-16" d="M43.6,47.18l.9,20.26h-4.5c-2.36-6.68-5.06-11.34-8.08-13.99-3.02-2.65-6.67-3.97-10.95-3.97-3.64,0-6.64,1.14-9.01,3.43-2.36,2.29-3.55,4.93-3.55,7.94,0,3.72,1.24,6.27,3.71,7.65,2.48,1.39,6.73,2.73,12.77,4.01,9.26,2,15.48,5,18.66,8.99,3.17,3.99,4.76,9.07,4.76,15.21,0,7.24-2.09,13.48-6.28,18.73-4.18,5.25-10.05,7.87-17.59,7.87-5.37,0-10.21-1.69-14.52-5.07-2.1,1.65-4,3.26-5.68,4.84H.49v-22.01h4.39c3.3,12.38,9.72,18.57,19.25,18.57,5.03,0,8.89-1.48,11.59-4.45,2.7-2.96,4.05-6.28,4.05-9.96,0-2.06-.59-3.92-1.77-5.57-1.18-1.65-2.56-2.96-4.14-3.94-1.58-.98-5.93-2.2-13.05-3.68-7.13-1.48-12.35-4.22-15.67-8.23C1.81,79.83.15,74.82.15,68.83c0-6.45,2.03-11.9,6.1-16.36,4.07-4.46,9.13-6.69,15.2-6.69,4.61,0,9.2,1.61,13.77,4.84,1.46-.86,3.03-2.01,4.72-3.43h3.66Z"/>
        <path class="cls-16" d="M55.48,46.84h62.47l.45,24.65h-3.43c-2.78-13.99-8.54-20.99-17.28-20.99h-1.74v68.16h11.43v3.66h-41.26v-3.66h11.37V50.5h-1.69c-8.74,0-14.52,7-17.34,20.99h-3.43l.45-24.65Z"/>
        <path class="cls-16" d="M151.44,50.5v48.74c0,7.8,1.43,13.03,4.28,15.67,2.85,2.65,6.72,3.97,11.59,3.97,3.68,0,7-.69,9.96-2.08,2.96-1.39,5.29-3.48,6.98-6.28,1.69-2.79,2.53-7.55,2.53-14.27v-39.85c0-2.59-.17-4.22-.51-4.9-.34-.67-1.93-1.01-4.78-1.01h-5.18v-3.66h24.09v3.66h-3.55c-2.81,0-4.54.33-5.18.98-.64.66-.96,2.45-.96,5.37v39.06c0,4.95-.48,9.3-1.43,13.03-.96,3.73-3.49,7.06-7.6,9.99-4.11,2.93-10.44,4.39-19,4.39-4.5,0-8.88-.52-13.14-1.55-4.26-1.03-7.74-2.86-10.44-5.49-2.7-2.63-4.4-5.32-5.09-8.08-.69-2.76-1.04-5.98-1.04-9.65v-48.07h-9.91v-3.66h38.72v3.66h-10.36Z"/>
        <path class="cls-16" d="M213.13,118.66V50.5h-9.46v-3.66h38.27c11.07,0,19.83,3.51,26.28,10.52,6.45,7.02,9.68,15.87,9.68,26.57,0,5.55-.98,10.77-2.95,15.65-1.97,4.88-5,9.31-9.09,13.31-4.09,4-8.28,6.57-12.58,7.71-4.3,1.14-9.58,1.72-15.84,1.72h-33.77v-3.66h9.46ZM231.59,50.5v68.16h5.97c9.12,0,14.62-2.68,16.52-8.03,1.89-5.35,2.84-14.51,2.84-27.46,0-10.14-.58-17.42-1.75-21.86-1.16-4.43-2.93-7.34-5.29-8.73-2.36-1.39-5.37-2.08-9.01-2.08h-9.29Z"/>
      </g>
    </g>
    <g>
      <path class="cls-15" d="M4.38,27.01V1.37H.1V.31h14.34c1.57,0,2.9.08,3.97.24,1.08.16,2.11.57,3.1,1.23.99.66,1.71,1.48,2.14,2.45.43.97.65,1.89.65,2.76,0,3.3-2.53,5.46-7.6,6.48v.1c5.71.92,8.57,3.3,8.57,7.12,0,.94-.26,1.93-.77,2.97-.51,1.04-1.32,1.94-2.44,2.7-1.12.76-2.26,1.23-3.42,1.42-1.17.19-2.63.28-4.4.28H.1v-1.06h4.28ZM13.55,1.37h-4.24v11.65h3.81c2.58,0,4.23-.5,4.95-1.51.72-1.01,1.08-2.59,1.08-4.76,0-1.7-.23-2.93-.7-3.7-.47-.77-1.07-1.24-1.79-1.42-.72-.17-1.76-.26-3.09-.26ZM13.07,14.07h-3.77v12.93h3.89c1.45,0,2.6-.11,3.47-.33.86-.22,1.6-.81,2.2-1.77.61-.96.91-2.47.91-4.52,0-2.19-.46-3.79-1.38-4.8-.92-1.01-2.69-1.51-5.33-1.51Z"/>
      <path class="cls-12" d="M40.2,18.77v-2.11c0-1.72-.14-2.86-.42-3.39-.28-.54-1.04-.81-2.29-.81-2.23,0-3.35.43-3.35,1.28,0,.25.09.52.28.82.19.3.28.64.28,1.04,0,.57-.19,1-.56,1.29-.37.3-.79.44-1.26.44-.61,0-1.08-.19-1.41-.57-.33-.38-.5-.82-.5-1.33,0-1.1.64-2.03,1.93-2.78,1.29-.75,3.09-1.13,5.39-1.13,1.85,0,3.2.21,4.06.64.86.43,1.38.96,1.58,1.59.2.63.3,1.53.3,2.69v7.62c0,1.12.08,1.81.24,2.09.16.28.4.41.73.41.5,0,.98-.34,1.45-1.01h.5c-.36,2.01-1.53,3.02-3.52,3.02s-3.06-1.1-3.43-3.31c-1.61,2.21-3.5,3.31-5.67,3.31-1.43,0-2.58-.39-3.43-1.17-.86-.78-1.28-1.73-1.28-2.87,0-3.52,3.46-5.44,10.39-5.77ZM40.2,21.96v-2.23c-2.55.1-4.24.48-5.05,1.15-.81.67-1.22,1.64-1.22,2.91,0,.92.24,1.64.73,2.15.49.51,1.05.77,1.69.77.81,0,1.55-.27,2.2-.82.65-.54,1.09-1.09,1.31-1.65.22-.55.33-1.31.33-2.28Z"/>
      <path class="cls-9" d="M52.64,27.01v-14.15h-2.94v-1.06h1.88c1.86,0,3.55-.1,5.07-.31v4.04h.08c1.42-2.83,3.43-4.24,6.02-4.24,1.21,0,2.21.31,2.99.93.78.62,1.31,1.35,1.59,2.19.28.84.42,2.15.42,3.91v8.69h3.23v1.06h-10.02v-1.06h2.75v-10.35c0-1.59-.1-2.68-.3-3.29-.2-.61-.72-.91-1.56-.91-1.34,0-2.54.69-3.61,2.06-1.07,1.37-1.6,3.22-1.6,5.54v6.95h2.71v1.06h-9.66v-1.06h2.94Z"/>
      <path class="cls-13" d="M86.97,13.95c.81,1.15,1.22,2.28,1.22,3.39,0,1.89-.76,3.32-2.29,4.29-1.52.97-2.77,1.46-3.73,1.46l-1.03.06c-.48,0-1.14-.04-1.97-.11-.83-.08-1.27-.11-1.32-.11-.54,0-1.17.24-1.88.73-.72.49-1.08,1.01-1.08,1.56,0,.48.19.85.56,1.1.37.25,1.3.37,2.79.37l7.08-.29c1.48,0,2.68.47,3.6,1.41.92.94,1.39,2.28,1.39,4.01,0,2.03-.83,3.73-2.5,5.12-1.67,1.39-3.98,2.08-6.93,2.08-2.29,0-4.11-.46-5.45-1.38-1.35-.92-2.02-2-2.02-3.24,0-.76.21-1.4.64-1.91.43-.52,1.39-1.2,2.88-2.06-2.29-.55-3.44-1.81-3.44-3.79,0-2.65,1.43-4.15,4.28-4.49v-.08c-2.21-1.05-3.31-2.63-3.31-4.74,0-1.71.68-3.15,2.05-4.31,1.37-1.17,2.97-1.75,4.82-1.75,2.01,0,3.7.69,5.05,2.07.99-1.38,2.1-2.07,3.31-2.07.47,0,.88.16,1.22.48.34.32.52.75.52,1.3,0,.48-.15.87-.46,1.15-.3.28-.63.42-.99.42-.52,0-.91-.24-1.17-.72-.26-.48-.47-.72-.65-.72-.35,0-.74.26-1.18.77ZM78.11,30.44c-1.31.83-1.97,2.06-1.97,3.68,0,2.57,1.75,3.85,5.26,3.85,2.23,0,4.08-.52,5.54-1.57,1.45-1.05,2.18-2.28,2.18-3.68,0-.84-.37-1.49-1.1-1.95s-1.55-.68-2.46-.68c-.36,0-1.17.04-2.42.12-1.26.08-2.19.13-2.79.15l-2.23.08ZM81.24,12.33c-1.34,0-2.17.34-2.48,1.01-.32.68-.48,1.81-.48,3.39,0,2.29.15,3.77.45,4.43.3.66,1.15.99,2.56.99s2.3-.34,2.59-1.01c.29-.68.43-2.32.43-4.95,0-1.63-.26-2.68-.78-3.16-.52-.48-1.28-.71-2.29-.71Z"/>
      <path class="cls-3" d="M104.72,18.77v-2.11c0-1.72-.14-2.86-.42-3.39-.28-.54-1.04-.81-2.29-.81-2.23,0-3.35.43-3.35,1.28,0,.25.09.52.28.82.19.3.28.64.28,1.04,0,.57-.19,1-.56,1.29-.37.3-.79.44-1.26.44-.61,0-1.08-.19-1.41-.57-.33-.38-.5-.82-.5-1.33,0-1.1.64-2.03,1.93-2.78,1.29-.75,3.09-1.13,5.39-1.13,1.85,0,3.2.21,4.06.64.86.43,1.38.96,1.58,1.59.2.63.3,1.53.3,2.69v7.62c0,1.12.08,1.81.24,2.09.16.28.4.41.73.41.5,0,.98-.34,1.45-1.01h.5c-.36,2.01-1.53,3.02-3.52,3.02s-3.06-1.1-3.43-3.31c-1.61,2.21-3.5,3.31-5.67,3.31-1.43,0-2.58-.39-3.43-1.17-.86-.78-1.28-1.73-1.28-2.87,0-3.52,3.46-5.44,10.39-5.77ZM104.72,21.96v-2.23c-2.55.1-4.24.48-5.05,1.15-.81.67-1.22,1.64-1.22,2.91,0,.92.24,1.64.73,2.15.49.51,1.05.77,1.69.77.81,0,1.55-.27,2.2-.82.65-.54,1.09-1.09,1.31-1.65.22-.55.33-1.31.33-2.28Z"/>
      <path class="cls-14" d="M116.77,27.01V1.37h-2.96V.31h2.84c1.9,0,3.29-.1,4.16-.31v27.01h2.92v1.06h-9.91v-1.06h2.96Z"/>
      <path class="cls-4" d="M126.31,19.89c0-2.39.82-4.42,2.46-6.09,1.64-1.68,3.68-2.51,6.1-2.51s4.38.8,6.03,2.41c1.65,1.61,2.47,3.62,2.47,6.03s-.86,4.56-2.57,6.28c-1.71,1.72-3.73,2.58-6.06,2.58s-4.27-.84-5.94-2.51c-1.67-1.68-2.5-3.74-2.5-6.18ZM138.72,19.89c0-2.54-.09-4.21-.26-5.03-.17-.81-.56-1.46-1.16-1.94-.6-.48-1.42-.71-2.47-.71-.99,0-1.81.24-2.45.73-.64.49-1.04,1.14-1.19,1.96-.15.81-.23,2.49-.23,5.03s.09,4.24.28,5.07c.19.83.59,1.48,1.22,1.95.63.47,1.42.7,2.37.7s1.77-.24,2.41-.71,1.05-1.14,1.22-1.99c.17-.85.26-2.54.26-5.06Z"/>
      <path class="cls-1" d="M149.38,27.01v-14.15h-3.35v-1.06h3.39c1.74,0,3.06-.09,3.97-.27v3.91h.08c.97-2.61,2.39-3.91,4.28-3.91.83,0,1.49.25,2,.76.5.5.76,1.11.76,1.83,0,.66-.2,1.2-.61,1.6s-.94.61-1.58.61c-1.19,0-1.78-.59-1.78-1.78l.08-.89c0-.32-.15-.48-.43-.48-.46,0-1.03.61-1.74,1.84-.7,1.23-1.06,3.1-1.06,5.63v6.35h3.43v1.06h-10.8v-1.06h3.35Z"/>
      <path class="cls-11" d="M177.81,18.69h-10.47c-.1,4.08.13,6.6.68,7.54.55.95,1.54,1.42,2.96,1.42,2.92,0,4.9-1.7,5.94-5.09h.89c-.46,2.06-1.32,3.57-2.59,4.55-1.27.98-2.68,1.47-4.24,1.47-2.22,0-4.15-.82-5.79-2.47-1.64-1.65-2.46-3.72-2.46-6.22s.8-4.47,2.41-6.13c1.61-1.66,3.47-2.48,5.6-2.48,1.85,0,3.47.66,4.85,1.97,1.39,1.31,2.13,3.12,2.22,5.44ZM167.34,17.76h6.02c.11-.98.17-1.72.17-2.23,0-2.21-1-3.31-3-3.31-.99,0-1.77.27-2.34.8s-.85,1.25-.85,2.16v2.59Z"/>
    </g>
  </g>
  <g>
    <path class="cls-10" d="M309.47,120.14c0-.73.26-1.35.78-1.88.52-.53,1.14-.79,1.87-.79s1.4.26,1.92.78c.53.52.79,1.15.79,1.89s-.26,1.38-.79,1.91c-.53.53-1.17.8-1.92.8s-1.35-.27-1.87-.8c-.52-.53-.78-1.17-.78-1.91Z"/>
    <path class="cls-10" d="M334.65,116.51h.92c-.43,2.06-1.27,3.64-2.52,4.72-1.25,1.08-2.76,1.62-4.53,1.62-2.41,0-4.44-.89-6.11-2.68-1.67-1.79-2.5-3.84-2.5-6.16s.85-4.49,2.56-6.3c1.71-1.81,3.83-2.71,6.36-2.71,1.81,0,3.28.46,4.42,1.38,1.14.92,1.71,1.95,1.71,3.09,0,.57-.2,1.08-.59,1.54-.39.46-.9.68-1.53.68s-1.12-.19-1.53-.58c-.41-.38-.61-.89-.61-1.52,0-.44.17-.88.52-1.3.35-.43.52-.72.52-.88,0-.38-.26-.72-.79-1.01-.53-.29-1.21-.44-2.05-.44-1.48,0-2.58.4-3.3,1.2-.72.8-1.08,2.49-1.08,5.06s.07,4.48.2,5.71c.13,1.23.49,2.2,1.08,2.9.58.7,1.54,1.06,2.88,1.06,2.82,0,4.8-1.79,5.94-5.38Z"/>
    <path class="cls-10" d="M338.66,113.88c0-2.46.85-4.56,2.54-6.29,1.69-1.73,3.79-2.59,6.3-2.59s4.52.83,6.23,2.49c1.7,1.66,2.55,3.73,2.55,6.23s-.88,4.71-2.65,6.48c-1.77,1.77-3.85,2.66-6.26,2.66s-4.41-.86-6.13-2.59c-1.72-1.73-2.58-3.86-2.58-6.38ZM351.48,113.88c0-2.62-.09-4.35-.27-5.19-.18-.84-.58-1.51-1.2-2-.62-.49-1.47-.74-2.55-.74-1.03,0-1.87.25-2.53.76-.66.51-1.07,1.18-1.23,2.02-.16.84-.23,2.57-.23,5.19s.1,4.38.29,5.23c.19.85.61,1.52,1.26,2.01s1.46.73,2.45.73,1.83-.25,2.49-.74c.66-.49,1.08-1.17,1.26-2.05.18-.88.27-2.62.27-5.22Z"/>
    <path class="cls-10" d="M362.78,121.23v-14.61h-3.01v-1.09h1.88c2.22,0,3.99-.09,5.3-.28v4.12h.09c1.12-2.75,3.13-4.12,6.02-4.12,3.15,0,4.88,1.46,5.21,4.38h.09c1.24-2.92,3.3-4.38,6.17-4.38,1.28,0,2.36.32,3.24.96.88.64,1.42,1.38,1.62,2.22.21.84.31,2.23.31,4.17v8.63h2.97v1.09h-9.93v-1.09h2.8v-10.55c0-1.67-.1-2.81-.29-3.44-.19-.63-.71-.94-1.55-.94-1.15,0-2.34.65-3.56,1.95-1.22,1.3-1.83,3.78-1.83,7.42v5.55h2.76v1.09h-9.68v-1.09h2.78v-8.27c0-3.22-.12-5.13-.35-5.75-.23-.61-.79-.92-1.68-.92-1.21,0-2.27.53-3.17,1.6-.9,1.07-1.47,2.11-1.69,3.12-.22,1.01-.33,2.62-.33,4.83v5.38h2.76v1.09h-9.93v-1.09h3.01Z"/>
  </g>
</svg>